<svg width="151" height="12" viewBox="0 0 151 12" fill="none" xmlns="http://www.w3.org/2000/svg">
<path d="M126.637 6.88827L124.26 6.28492C123.451 6.0838 122.87 5.72626 122.515 5.21229C122.172 4.68715 122 3.97207 122 3.06704C122 2.39665 122.066 1.86033 122.199 1.4581C122.343 1.04469 122.582 0.73743 122.914 0.536313C123.258 0.324022 123.634 0.184357 124.044 0.117318C124.465 0.050279 125.025 0.0167596 125.723 0.0167596C127.075 0.0391056 128.21 0.150837 129.13 0.351955L129.03 1.42458C127.955 1.36871 126.875 1.34078 125.789 1.34078C125.302 1.34078 124.942 1.35195 124.709 1.3743C124.476 1.39665 124.249 1.46369 124.028 1.57542C123.806 1.68715 123.656 1.86592 123.579 2.11173C123.512 2.34637 123.479 2.67598 123.479 3.10056C123.479 3.71508 123.584 4.15084 123.795 4.40782C124.017 4.6648 124.393 4.86033 124.925 4.99441L127.252 5.58101C128.105 5.7933 128.703 6.15642 129.047 6.67039C129.39 7.18436 129.562 7.90503 129.562 8.8324C129.562 10.1061 129.274 10.9497 128.698 11.3631C128.133 11.7765 127.141 11.9832 125.723 11.9832C124.515 11.9832 123.33 11.8771 122.166 11.6648L122.266 10.5754C124.127 10.6425 125.296 10.6704 125.773 10.6592C126.681 10.6592 127.291 10.5419 127.601 10.3073C127.922 10.0726 128.083 9.56983 128.083 8.79888C128.083 8.16201 127.972 7.72067 127.75 7.47486C127.54 7.21788 127.169 7.02235 126.637 6.88827Z" fill="white"/>
<path d="M139.474 10.5587L139.54 11.6983C138.521 11.7654 136.881 11.7989 134.621 11.7989C133.945 11.7989 133.407 11.6201 133.009 11.2626C132.621 10.8939 132.421 10.4022 132.41 9.78771V2.21229C132.421 1.59776 132.621 1.11173 133.009 0.754189C133.407 0.385474 133.945 0.201117 134.621 0.201117C136.881 0.201117 138.521 0.234636 139.54 0.301675L139.474 1.4581H134.87C134.205 1.4581 133.873 1.82681 133.873 2.56425V5.07821H138.825V6.26816H133.873V9.43575C133.873 10.1844 134.205 10.5587 134.87 10.5587H139.474Z" fill="white"/>
<path d="M142.939 1.32402C143.615 0.441341 144.795 0 146.479 0C148.164 0 149.338 0.441341 150.003 1.32402C150.668 2.19553 151 3.75419 151 6C151 8.24581 150.668 9.81005 150.003 10.6927C149.338 11.5642 148.164 12 146.479 12C144.795 12 143.615 11.5642 142.939 10.6927C142.275 9.81005 141.942 8.24581 141.942 6C141.942 3.75419 142.275 2.19553 142.939 1.32402ZM148.823 2.34637C148.391 1.6648 147.61 1.32402 146.479 1.32402C145.349 1.32402 144.568 1.6648 144.136 2.34637C143.704 3.01676 143.488 4.23464 143.488 6C143.488 7.76536 143.704 8.98883 144.136 9.67039C144.568 10.3408 145.349 10.676 146.479 10.676C147.61 10.676 148.391 10.3408 148.823 9.67039C149.255 8.98883 149.471 7.76536 149.471 6C149.471 4.23464 149.255 3.01676 148.823 2.34637Z" fill="white"/>
<rect x="106" width="1" height="12" rx="0.5" fill="white"/>
<path d="M10.2303 0.201117V6.98883C10.2303 8.8324 9.86192 10.1285 9.12521 10.8771C8.38849 11.6257 7.11599 12 5.30769 12C3.35428 12 1.98131 11.6257 1.18879 10.8771C0.396263 10.1285 0 8.8324 0 6.98883V0.201117H3.63334V6.98883C3.63334 7.9162 3.7338 8.53631 3.93472 8.84916C4.13564 9.15084 4.53191 9.30168 5.12351 9.30168C5.70395 9.30168 6.09463 9.15084 6.29556 8.84916C6.49648 8.53631 6.59694 7.9162 6.59694 6.98883V0.201117H10.2303Z" fill="white"/>
<path d="M13.5635 11.7654V0.201117C14.7021 0.089385 16.3318 0.0335191 18.4526 0.0335191C20.2944 0.0335191 21.5502 0.307262 22.2199 0.854748C22.9008 1.40223 23.2413 2.44134 23.2413 3.97207C23.2413 5.48045 22.9287 6.50838 22.3036 7.05587C21.6786 7.60335 20.5623 7.87709 18.9549 7.87709C18.3522 7.87709 17.7662 7.84357 17.1969 7.77654V11.7654H13.5635ZM17.1969 5.31285H18.3689C18.8601 5.31285 19.1894 5.22346 19.3568 5.04469C19.5242 4.86592 19.6079 4.50838 19.6079 3.97207C19.6079 3.42458 19.5242 3.06145 19.3568 2.88268C19.1894 2.69274 18.8601 2.59776 18.3689 2.59776H17.1969V5.31285Z" fill="white"/>
<path d="M34.7522 8.76536L35.0201 11.4134C33.9485 11.7821 32.5979 11.9665 30.9681 11.9665C29.0482 11.9665 27.692 11.5196 26.8995 10.6257C26.1181 9.73184 25.7274 8.18436 25.7274 5.98324C25.7274 3.78212 26.1181 2.23464 26.8995 1.34078C27.692 0.446927 29.0482 0 30.9681 0C32.4081 0 33.675 0.150838 34.7689 0.452514L34.501 3.10056C32.9383 3.07821 31.7607 3.06704 30.9681 3.06704C30.3989 3.06704 30.0194 3.26257 29.8296 3.65363C29.6398 4.03352 29.545 4.81006 29.545 5.98324C29.545 7.15642 29.6398 7.93855 29.8296 8.32961C30.0194 8.7095 30.3989 8.89944 30.9681 8.89944C32.6313 8.89944 33.8927 8.85475 34.7522 8.76536Z" fill="white"/>
<path d="M41.4742 0.201117V8.27933C41.4742 8.4581 41.5356 8.60335 41.6584 8.71508C41.7923 8.82681 41.9653 8.88268 42.1774 8.88268H46.0619L46.2293 11.5978C45.0796 11.7542 43.1988 11.8324 40.5868 11.8324C39.7608 11.8324 39.0966 11.5922 38.5943 11.1117C38.092 10.6201 37.8408 9.98324 37.8408 9.20112V0.201117H41.4742Z" fill="white"/>
<path d="M52.4854 11.7654H48.8855V0.201117H52.4854V11.7654Z" fill="white"/>
<path d="M64.3949 9.05028L64.5623 11.6145C63.446 11.7598 61.4424 11.8324 58.5514 11.8324C57.7588 11.8324 57.1058 11.5922 56.5924 11.1117C56.0901 10.6201 55.8389 9.98324 55.8389 9.20112V2.76536C55.8389 1.98324 56.0901 1.35195 56.5924 0.871508C57.1058 0.379888 57.7588 0.134078 58.5514 0.134078C61.4424 0.134078 63.446 0.206704 64.5623 0.351955L64.3949 2.9162H60.1587C59.9467 2.9162 59.7792 2.97207 59.6564 3.0838C59.5337 3.19553 59.4723 3.34078 59.4723 3.51955V4.64246H63.7921V7.05587H59.4723V8.44693C59.4723 8.6257 59.5337 8.77095 59.6564 8.88268C59.7792 8.99441 59.9467 9.05028 60.1587 9.05028H64.3949Z" fill="white"/>
<path d="M78.2033 0.201117V10.5084C78.2033 11.3464 77.7847 11.7654 76.9475 11.7654H75.5578C75.2118 11.7654 74.9439 11.6872 74.7541 11.5307C74.5755 11.3743 74.3746 11.1006 74.1513 10.7095L71.6398 6.73743C71.3608 6.23464 71.104 5.57542 70.8696 4.75978H70.7524C70.864 5.5419 70.9198 6.24581 70.9198 6.87151V11.7654H67.5711V1.4581C67.5711 0.620111 67.9897 0.201117 68.8269 0.201117H70.2166C70.5626 0.201117 70.825 0.279329 71.0036 0.435754C71.1822 0.592178 71.3887 0.865921 71.6231 1.25698L74.0341 5.04469C74.3355 5.58101 74.6313 6.24022 74.9215 7.02235H75.0387C74.9383 6.19553 74.8825 5.49721 74.8713 4.92737V0.201117H78.2033Z" fill="white"/>
<path d="M91 2.9162H87.7685V11.7654H84.1352V2.9162H80.9037V0.201117H91V2.9162Z" fill="white"/>
</svg>
