<svg width="352" height="28" viewBox="0 0 352 28" fill="none" xmlns="http://www.w3.org/2000/svg">
<path d="M295.207 16.0726L289.666 14.6648C287.781 14.1955 286.425 13.3613 285.598 12.162C284.798 10.9367 284.397 9.26816 284.397 7.15642C284.397 5.59218 284.552 4.34078 284.862 3.40223C285.198 2.43761 285.753 1.72067 286.528 1.2514C287.329 0.756051 288.207 0.430166 289.163 0.273742C290.144 0.117318 291.449 0.0391056 293.076 0.0391056C296.227 0.0912465 298.874 0.351954 301.018 0.821228L300.786 3.32402C298.28 3.19367 295.762 3.12849 293.231 3.12849C292.094 3.12849 291.255 3.15456 290.713 3.2067C290.17 3.25884 289.641 3.41527 289.124 3.67598C288.607 3.93668 288.259 4.35382 288.078 4.92737C287.923 5.47486 287.846 6.24395 287.846 7.23464C287.846 8.66853 288.091 9.68529 288.582 10.2849C289.098 10.8845 289.976 11.3408 291.216 11.6536L296.64 13.0223C298.629 13.5177 300.024 14.365 300.824 15.5642C301.625 16.7635 302.025 18.4451 302.025 20.6089C302.025 23.581 301.354 25.5493 300.011 26.514C298.693 27.4786 296.382 27.9609 293.076 27.9609C290.261 27.9609 287.497 27.7132 284.785 27.2179L285.017 24.676C289.357 24.8324 292.081 24.8976 293.192 24.8715C295.31 24.8715 296.731 24.5978 297.454 24.0503C298.203 23.5028 298.577 22.3296 298.577 20.5307C298.577 19.0447 298.319 18.0149 297.802 17.4413C297.312 16.8417 296.446 16.3855 295.207 16.0726Z" fill="white"/>
<path d="M325.131 24.6369L325.286 27.2961C322.909 27.4525 319.087 27.5307 313.818 27.5307C312.242 27.5307 310.989 27.1136 310.06 26.2793C309.156 25.419 308.691 24.2719 308.665 22.838V5.16201C308.691 3.72812 309.156 2.59404 310.06 1.75977C310.989 0.89944 312.242 0.469272 313.818 0.469272C319.087 0.469272 322.909 0.547484 325.286 0.703908L325.131 3.40223H314.399C312.849 3.40223 312.074 4.26257 312.074 5.98324V11.8492H323.62V14.6257H312.074V22.0168C312.074 23.7635 312.849 24.6369 314.399 24.6369H325.131Z" fill="white"/>
<path d="M333.21 3.08939C334.785 1.0298 337.536 0 341.462 0C345.388 0 348.126 1.0298 349.676 3.08939C351.225 5.1229 352 8.75977 352 14C352 19.2402 351.225 22.8901 349.676 24.9497C348.126 26.9832 345.388 28 341.462 28C337.536 28 334.785 26.9832 333.21 24.9497C331.66 22.8901 330.885 19.2402 330.885 14C330.885 8.75977 331.66 5.1229 333.21 3.08939ZM346.925 5.47486C345.918 3.88454 344.097 3.08939 341.462 3.08939C338.828 3.08939 337.007 3.88454 335.999 5.47486C334.992 7.0391 334.488 9.88082 334.488 14C334.488 18.1192 334.992 20.9739 335.999 22.5642C337.007 24.1285 338.828 24.9106 341.462 24.9106C344.097 24.9106 345.918 24.1285 346.925 22.5642C347.932 20.9739 348.436 18.1192 348.436 14C348.436 9.88082 347.932 7.0391 346.925 5.47486Z" fill="white"/>
<rect x="247.099" width="2.33113" height="28" rx="1" fill="white"/>
<path d="M23.8481 0.469272V16.3073C23.8481 20.6089 22.9894 23.6331 21.272 25.3799C19.5546 27.1266 16.5883 28 12.3729 28C7.81925 28 4.61869 27.1266 2.77122 25.3799C0.923739 23.6331 0 20.6089 0 16.3073V0.469272H8.46977V16.3073C8.46977 18.4711 8.70396 19.9181 9.17233 20.648C9.64071 21.352 10.5644 21.7039 11.9435 21.7039C13.2966 21.7039 14.2074 21.352 14.6757 20.648C15.1441 19.9181 15.3783 18.4711 15.3783 16.3073V0.469272H23.8481Z" fill="white"/>
<path d="M31.6183 27.4525V0.469272C34.2724 0.208565 38.0715 0.0782113 43.0154 0.0782113C47.3089 0.0782113 50.2362 0.716945 51.7975 1.99441C53.3847 3.27188 54.1784 5.69646 54.1784 9.26816C54.1784 12.7877 53.4498 15.1862 51.9926 16.4637C50.5354 17.7412 47.9334 18.3799 44.1864 18.3799C42.7812 18.3799 41.4152 18.3017 40.0881 18.1452V27.4525H31.6183ZM40.0881 12.3966H42.8203C43.9652 12.3966 44.7328 12.1881 45.1231 11.7709C45.5134 11.3538 45.7086 10.5196 45.7086 9.26816C45.7086 7.99069 45.5134 7.14339 45.1231 6.72626C44.7328 6.28305 43.9652 6.06145 42.8203 6.06145H40.0881V12.3966Z" fill="white"/>
<path d="M81.0117 20.4525L81.6362 26.6313C79.1382 27.4916 75.9897 27.9218 72.1907 27.9218C67.7151 27.9218 64.5535 26.879 62.7061 24.7933C60.8846 22.7076 59.9739 19.0968 59.9739 13.9609C59.9739 8.82495 60.8846 5.21415 62.7061 3.12849C64.5535 1.04283 67.7151 0 72.1907 0C75.5473 0 78.5007 0.351955 81.0507 1.05587L80.4262 7.23464C76.7833 7.18249 74.0381 7.15642 72.1907 7.15642C70.8636 7.15642 69.9789 7.61266 69.5365 8.52514C69.0942 9.41154 68.873 11.2235 68.873 13.9609C68.873 16.6983 69.0942 18.5233 69.5365 19.4358C69.9789 20.3222 70.8636 20.7654 72.1907 20.7654C76.0677 20.7654 79.0081 20.6611 81.0117 20.4525Z" fill="white"/>
<path d="M96.6815 0.469272V19.3184C96.6815 19.7356 96.8246 20.0745 97.1109 20.3352C97.4231 20.5959 97.8264 20.7263 98.3208 20.7263H107.376L107.766 27.0615C105.086 27.4264 100.702 27.6089 94.6129 27.6089C92.6873 27.6089 91.1391 27.0484 89.9681 25.9274C88.7972 24.7803 88.2117 23.2942 88.2117 21.4693V0.469272H96.6815Z" fill="white"/>
<path d="M122.35 27.4525H113.958V0.469272H122.35V27.4525Z" fill="white"/>
<path d="M150.112 21.1173L150.503 27.1006C147.901 27.4395 143.23 27.6089 136.491 27.6089C134.643 27.6089 133.121 27.0484 131.924 25.9274C130.753 24.7803 130.168 23.2942 130.168 21.4693V6.45251C130.168 4.62756 130.753 3.15456 131.924 2.03352C133.121 0.886406 134.643 0.31285 136.491 0.31285C143.23 0.31285 147.901 0.482309 150.503 0.821228L150.112 6.80447H140.238C139.743 6.80447 139.353 6.93482 139.067 7.19553C138.78 7.45624 138.637 7.79516 138.637 8.21229V10.8324H148.707V16.4637H138.637V19.7095C138.637 20.1266 138.78 20.4655 139.067 20.7263C139.353 20.987 139.743 21.1173 140.238 21.1173H150.112Z" fill="white"/>
<path d="M182.302 0.469272V24.5196C182.302 26.4749 181.326 27.4525 179.374 27.4525H176.135C175.328 27.4525 174.704 27.27 174.261 26.905C173.845 26.54 173.377 25.9013 172.856 24.9888L167.001 15.7207C166.351 14.5475 165.752 13.0093 165.206 11.1061H164.933C165.193 12.9311 165.323 14.5736 165.323 16.0335V27.4525H157.517V3.40223C157.517 1.44693 158.493 0.469272 160.444 0.469272H163.684C164.49 0.469272 165.102 0.651768 165.518 1.01676C165.935 1.38175 166.416 2.02048 166.962 2.93296L172.583 11.7709C173.285 13.0223 173.975 14.5605 174.652 16.3855H174.925C174.691 14.4562 174.56 12.8268 174.534 11.4972V0.469272H182.302Z" fill="white"/>
<path d="M212.132 6.80447H204.599V27.4525H196.13V6.80447H188.597V0.469272H212.132V6.80447Z" fill="white"/>
</svg>
